<svg xmlns="http://www.w3.org/2000/svg" width="156" height="51" viewBox="0 0 156 51"><defs><style>.a{fill:#fff;}.b{fill:#5f236e;}.c{fill:#752e87;}.d{fill:#171617;}.e{fill:#722a84;}.f{opacity:0.15;}</style></defs><g transform="translate(-7180.619 -13040.41)"><g transform="translate(7200.528 13051.756)"><path class="a" d="M7265.882,13134.168h0v-.016h0Z" transform="translate(-7245.06 -13100.897)"/><path class="a" d="M7251.854,13072.027a24.781,24.781,0,0,0-1.034-3.226,10.762,10.762,0,0,0-5.018-3.247c-5.249-1.914-6.478-.736-7.123.4-1.281,2.748-2.547.206-2.547.206-.253-.823-1.91-2.738-7.771-.6-6.552,2.4-6.552,6.109-5.638,8.245a33.534,33.534,0,0,0,2.183,3.471c5.56,2.585,11.051,4.548,15.234,4.779,0,0-2.481,1.737-14.127-2.552a3.672,3.672,0,0,1-.022,2.7c-3.5,7.977,1.1,16.642,2.913,18.778s2.364,1.072,2.364,1.072-2-14.049,5.812-14.049c4.235,0,5.578,4.13,5.93,7.909.007.068.013.139.021.208l.015.188c.042.48.068.975.069,1.48v.01a25.2,25.2,0,0,0,6.2-7.2,16.122,16.122,0,0,0-1.154-8.4c-1.271-2.9,2.363-6.254,3.275-8.4A5.243,5.243,0,0,0,7251.854,13072.027Z" transform="translate(-7222.295 -13064.54)"/><path class="a" d="M7281.7,13072.748c.047.114.1.226.146.34l.021.025C7281.817,13072.988,7281.753,13072.871,7281.7,13072.748Z" transform="translate(-7253.322 -13068.827)"/></g><path class="b" d="M7230.608,13069a24.83,24.83,0,0,1-3.055,8.861,16.022,16.022,0,0,0-1.154-8.372c-1.271-2.891,2.363-6.23,3.274-8.367a5.167,5.167,0,0,0,.422-1.824A24.841,24.841,0,0,1,7230.608,13069Zm-15.294,6.271c-7.812,0-5.812,14-5.812,14s-.545,1.06-2.364-1.068-6.409-10.764-2.913-18.711a3.647,3.647,0,0,0,.022-2.69c11.646,4.274,14.127,2.544,14.127,2.544-4.183-.231-9.674-2.187-15.234-4.763a33.339,33.339,0,0,1-2.183-3.458c-.915-2.128-.915-5.828,5.638-8.216,5.861-2.127,7.517-.22,7.771.6,0,0,1.266,2.531,2.546-.207.645-1.127,1.874-2.3,7.123-.395a10.721,10.721,0,0,1,5.038,3.26,25.068,25.068,0,1,0-7.724,28.88C7221.275,13080.927,7220.279,13075.27,7215.314,13075.27Z" transform="translate(0 0.001)"/><g transform="translate(7181.206 13040.41)"><path class="c" d="M7246.642,13113.646c-6.538,0-6.2,9.837-5.921,13.048a30.338,30.338,0,0,0,8.688-1.036,25.416,25.416,0,0,0,3.269-2.2C7252.6,13119.324,7251.607,13113.646,7246.642,13113.646Z" transform="translate(-7212.534 -13078.843)"/><path class="c" d="M7279.436,13081.922c-.912,2.145-4.546,5.5-3.275,8.4a16.127,16.127,0,0,1,1.154,8.4,25.127,25.127,0,0,0,2.543-18.63A5.216,5.216,0,0,1,7279.436,13081.922Z" transform="translate(-7230.968 -13061.252)"/><path class="c" d="M7205.733,13087.86c.664.107,1.327.192,1.986.259-1.855-2.242-6.31-10.774-2.852-18.635a3.644,3.644,0,0,0,.022-2.689c11.646,4.273,14.127,2.544,14.127,2.544-4.183-.231-9.674-2.187-15.234-4.762a33.547,33.547,0,0,1-2.183-3.457c-.915-2.128-.915-5.827,5.638-8.216,5.861-2.126,7.517-.218,7.771.6,0,0,1.266,2.531,2.546-.207.645-1.128,1.874-2.3,7.123-.4a10.714,10.714,0,0,1,5.038,3.261,25.149,25.149,0,0,0-47.547,2.622c-.009.049-.019.1-.028.149C7179.932,13072.434,7190.493,13085.384,7205.733,13087.86Z" transform="translate(-7181.849 -13040.411)"/></g><g transform="translate(7249.372 13059.853)"><path class="d" d="M7328.259,13112.408v-30.232a64.789,64.789,0,0,1,9.69-.687q9.756,0,14,4.125a14.331,14.331,0,0,1,4.245,10.766q0,7.857-4.833,12.17t-14.908,4.316A64.655,64.655,0,0,1,7328.259,13112.408Zm7.019-25.207v20.046a14.189,14.189,0,0,0,2.535.136q5.231,0,8.094-2.771t2.863-7.959q0-4.746-2.614-7.236t-7.527-2.49A16.574,16.574,0,0,0,7335.277,13087.2Z" transform="translate(-7328.259 -13081.488)"/><path class="d" d="M7408.486,13112.634h-14.715a3.9,3.9,0,0,0,1.98,3.093,8.432,8.432,0,0,0,4.494,1.105,20.09,20.09,0,0,0,6.338-.957l.905,4.7a21.032,21.032,0,0,1-8.241,1.46q-5.682,0-8.908-3.059a10.97,10.97,0,0,1-3.226-8.357,12.273,12.273,0,0,1,3.1-8.389,10.55,10.55,0,0,1,8.354-3.528,9.324,9.324,0,0,1,7.517,3.147,12.075,12.075,0,0,1,2.671,8.084A11.27,11.27,0,0,1,7408.486,13112.634Zm-14.76-4.841h8.512a5.464,5.464,0,0,0-.918-3,3.412,3.412,0,0,0-3.112-1.426,4.009,4.009,0,0,0-3,1.22A5.636,5.636,0,0,0,7393.726,13107.793Z" transform="translate(-7358.999 -13090.481)"/><path class="d" d="M7434.308,13121.537v-15.161q0-3.312-.181-7.17h6.066l.316,3.151h.182a7.965,7.965,0,0,1,7.017-3.651,7.472,7.472,0,0,1,5.942,2.543q2.209,2.55,2.208,7.183v13.105h-7.018v-12.191q0-4.98-3.668-4.979a3.736,3.736,0,0,0-2.671,1.143,4.3,4.3,0,0,0-1.177,3.241v12.786Z" transform="translate(-7383.553 -13090.481)"/><path class="d" d="M7482.8,13088.912l6.836-1.871v6.072h5.025v5.207h-5.025v7.854a5.571,5.571,0,0,0,.646,3.117,2.421,2.421,0,0,0,2.117.9,7.769,7.769,0,0,0,2.128-.228l.046,5.344a13.1,13.1,0,0,1-4.573.638,7.223,7.223,0,0,1-5.185-1.907q-2.015-1.9-2.015-6.723v-9h-2.988v-5.207h2.988Z" transform="translate(-7407.412 -13084.389)"/></g><rect class="d" width="7.425" height="22.47" transform="translate(7239.309 13068.004)"/><path class="e" d="M7312.369,13081.281a3.714,3.714,0,0,1-1.024,2.684,3.934,3.934,0,0,1-5.378,0,4.01,4.01,0,0,1,.011-5.363,3.9,3.9,0,0,1,5.355,0A3.684,3.684,0,0,1,7312.369,13081.281Z" transform="translate(-65.635 -19.465)"/><g class="f" transform="translate(7249.372 13060.015)"><path class="a" d="M7455.859,13114.248v-5.816q0-4.636-2.208-7.183a7.472,7.472,0,0,0-5.942-2.543,7.965,7.965,0,0,0-7.017,3.651h-.182l-.316-3.151h-6.066q.179,3.858.181,7.17v6.081q3.439.483,7.018.844v-4.55a4.3,4.3,0,0,1,1.177-3.241,3.736,3.736,0,0,1,2.671-1.143q3.667,0,3.668,4.979v4.575Q7452.3,13114.142,7455.859,13114.248Z" transform="translate(-7383.553 -13090.481)"/><path class="a" d="M7489.633,13087.041l-6.836,1.871v4.2h-2.988v5.207h2.988v9c0,.314.008.617.021.911q1.707.026,3.43.026,1.8,0,3.587-.03a8.881,8.881,0,0,1-.2-2.05v-7.854h5.025v-5.207h-5.025Z" transform="translate(-7407.412 -13084.389)"/><path class="a" d="M7356.2,13096.379a14.331,14.331,0,0,0-4.245-10.766q-4.244-4.116-14-4.125a64.789,64.789,0,0,0-9.69.688v.891a32.887,32.887,0,0,0,7.019,6.182v-2.047a16.574,16.574,0,0,1,3.351-.275q4.913,0,7.527,2.49a9.216,9.216,0,0,1,2.6,6.628q3.471,1.337,7.334,2.509C7356.158,13097.852,7356.2,13097.128,7356.2,13096.379Z" transform="translate(-7328.259 -13081.488)"/><path class="a" d="M7409.088,13109.938a12.075,12.075,0,0,0-2.671-8.084,9.324,9.324,0,0,0-7.517-3.147,10.549,10.549,0,0,0-8.353,3.528,12.07,12.07,0,0,0-2.8,5.488,151.466,151.466,0,0,0,21.146,4.563A12.184,12.184,0,0,0,7409.088,13109.938Zm-15.032-2.145a5.632,5.632,0,0,1,1.483-3.21,4.01,4.01,0,0,1,3-1.22,3.413,3.413,0,0,1,3.112,1.426,5.468,5.468,0,0,1,.917,3Z" transform="translate(-7359.329 -13090.481)"/></g></g></svg>